<svg xmlns="http://www.w3.org/2000/svg" viewBox="0 0 512 512" width="512" height="512">
  <defs>
    <linearGradient id="bgGrad" x1="0" y1="0" x2="0" y2="1">
      <stop offset="0%" stop-color="#18181b" />
      <stop offset="100%" stop-color="#09090b" />
    </linearGradient>
    <radialGradient id="pinkAura" cx="50%" cy="50%" r="50%">
      <stop offset="0%" stop-color="#ec4899" stop-opacity="0.85" />
      <stop offset="60%" stop-color="#ec4899" stop-opacity="0.35" />
      <stop offset="100%" stop-color="#ec4899" stop-opacity="0" />
    </radialGradient>
  </defs>

  <!-- Dark Rounded Frame -->
  <rect width="512" height="512" rx="112" fill="url(#bgGrad)" stroke="#27272a" stroke-width="12"/>

  <!-- Pink Glow Aura -->
  <circle cx="256" cy="256" r="160" fill="url(#pinkAura)" />

  <!-- Lucide Brain Icon -->
  <g transform="translate(96, 96) scale(13.333)" fill="none" stroke="#ec4899" stroke-width="2.5" stroke-linecap="round" stroke-linejoin="round">
    <path d="M12 18V5"/>
    <path d="M15 13a4.17 4.17 0 0 1-3-4 4.17 4.17 0 0 1-3 4"/>
    <path d="M17.598 6.5A3 3 0 1 0 12 5a3 3 0 1 0-5.598 1.5"/>
    <path d="M17.997 5.125a4 4 0 0 1 2.526 5.77"/>
    <path d="M18 18a4 4 0 0 0 2-7.464"/>
    <path d="M19.967 17.483A4 4 0 1 1 12 18a4 4 0 1 1-7.967-.517"/>
    <path d="M6 18a4 4 0 0 1-2-7.464"/>
    <path d="M6.003 5.125a4 4 0 0 0-2.526 5.77"/>
  </g>
</svg>
